<svg width="34" height="25" viewBox="0 0 34 25" fill="none" xmlns="http://www.w3.org/2000/svg">
<path d="M31.316 11.0675C31.772 11.7065 32 12.0275 32 12.5C32 12.974 31.772 13.2935 31.316 13.9325C29.267 16.8065 24.0335 23 17 23C9.965 23 4.733 16.805 2.684 13.9325C2.228 13.2935 2 12.9725 2 12.5C2 12.026 2.228 11.7065 2.684 11.0675C4.733 8.1935 9.9665 2 17 2C24.035 2 29.267 8.195 31.316 11.0675Z" stroke="#82C341" stroke-width="2.2" stroke-linecap="round" stroke-linejoin="round"/>
<path d="M21.5 12.5C21.5 11.3065 21.0259 10.1619 20.182 9.31802C19.3381 8.47411 18.1935 8 17 8C15.8065 8 14.6619 8.47411 13.818 9.31802C12.9741 10.1619 12.5 11.3065 12.5 12.5C12.5 13.6935 12.9741 14.8381 13.818 15.682C14.6619 16.5259 15.8065 17 17 17C18.1935 17 19.3381 16.5259 20.182 15.682C21.0259 14.8381 21.5 13.6935 21.5 12.5Z" stroke="#82C341" stroke-width="2.2" stroke-linecap="round" stroke-linejoin="round"/>
</svg>
