<svg width="38" height="43" viewBox="0 0 38 43" fill="none" xmlns="http://www.w3.org/2000/svg">
<path fill-rule="evenodd" clip-rule="evenodd" d="M11.122 10.2058V8.17578C11.122 6.18666 11.9122 4.279 13.3187 2.87248C14.7253 1.46596 16.6329 0.675781 18.622 0.675781C20.6112 0.675781 22.5188 1.46596 23.9253 2.87248C25.3319 4.279 26.122 6.18666 26.122 8.17578V10.2058C28.696 10.2838 30.272 10.5598 31.474 11.5578C33.14 12.9418 33.58 15.2818 34.458 19.9638L35.958 27.9638C37.192 34.5478 37.808 37.8398 36.01 40.0078C34.21 42.1758 30.86 42.1758 24.162 42.1758H13.082C6.38204 42.1758 3.03404 42.1758 1.23404 40.0078C-0.565955 37.8398 0.0540448 34.5478 1.28604 27.9638L2.78604 19.9638C3.66604 15.2838 4.10404 12.9418 5.77004 11.5578C6.97204 10.5598 8.54804 10.2838 11.122 10.2058ZM14.122 8.17578C14.122 6.98231 14.5962 5.83771 15.4401 4.9938C16.284 4.14989 17.4286 3.67578 18.622 3.67578C19.8155 3.67578 20.9601 4.14989 21.804 4.9938C22.6479 5.83771 23.122 6.98231 23.122 8.17578V10.1758H14.122V8.17578ZM26.102 19.9298C26.0697 19.7354 25.9995 19.5493 25.8952 19.3821C25.791 19.2149 25.6549 19.0699 25.4946 18.9553C25.3343 18.8407 25.1531 18.7588 24.9611 18.7143C24.7692 18.6698 24.5704 18.6635 24.376 18.6958C24.1817 18.7281 23.9956 18.7984 23.8284 18.9026C23.6612 19.0068 23.5162 19.1429 23.4016 19.3032C23.287 19.4635 23.2051 19.6448 23.1606 19.8367C23.116 20.0286 23.1097 20.2274 23.142 20.4218L25.142 32.4218C25.1744 32.6161 25.2446 32.8022 25.3488 32.9694C25.4531 33.1366 25.5892 33.2817 25.7495 33.3962C25.9097 33.5108 26.091 33.5927 26.2829 33.6373C26.4749 33.6818 26.6737 33.6881 26.868 33.6558C27.0624 33.6235 27.2485 33.5532 27.4157 33.449C27.5829 33.3448 27.7279 33.2086 27.8425 33.0484C27.9571 32.8881 28.039 32.7068 28.0835 32.5149C28.1281 32.323 28.1343 32.1241 28.102 31.9298L26.102 19.9298ZM12.868 18.6958C12.6737 18.6634 12.4749 18.6697 12.2829 18.7142C12.091 18.7587 11.9097 18.8406 11.7494 18.9552C11.5891 19.0698 11.453 19.2149 11.3488 19.3821C11.2446 19.5493 11.1743 19.7354 11.142 19.9298L9.14205 31.9298C9.10974 32.1241 9.11603 32.323 9.16056 32.5149C9.20509 32.7068 9.28699 32.8881 9.40158 33.0484C9.51617 33.2086 9.6612 33.3448 9.8284 33.449C9.9956 33.5532 10.1817 33.6235 10.376 33.6558C10.5704 33.6881 10.7692 33.6818 10.9611 33.6373C11.1531 33.5927 11.3343 33.5108 11.4946 33.3962C11.6549 33.2817 11.791 33.1366 11.8952 32.9694C11.9995 32.8022 12.0697 32.6161 12.102 32.4218L14.102 20.4218C14.1344 20.2274 14.1281 20.0286 14.0836 19.8367C14.0391 19.6447 13.9572 19.4634 13.8426 19.3031C13.728 19.1429 13.583 19.0067 13.4158 18.9025C13.2485 18.7983 13.0624 18.728 12.868 18.6958Z" fill="white"/>
</svg>
