<svg width="35" height="35" viewBox="0 0 35 35" fill="none" xmlns="http://www.w3.org/2000/svg">
<path d="M2.76223 5.76667H29.8096C32.2594 5.76667 34.0283 8.02444 33.3563 10.2964L30.4158 20.252C29.9625 21.7809 28.5153 22.8333 26.8691 22.8333H10.5881C8.94006 22.8333 7.49116 21.7791 7.0396 20.252L2.76223 5.76667ZM2.76223 5.76667L1.5 1.5M25.5002 33.5C26.2075 33.5 26.8857 33.219 27.3858 32.719C27.8859 32.2189 28.1669 31.5406 28.1669 30.8333C28.1669 30.1261 27.8859 29.4478 27.3858 28.9477C26.8857 28.4476 26.2075 28.1667 25.5002 28.1667C24.793 28.1667 24.1147 28.4476 23.6146 28.9477C23.1145 29.4478 22.8335 30.1261 22.8335 30.8333C22.8335 31.5406 23.1145 32.2189 23.6146 32.719C24.1147 33.219 24.793 33.5 25.5002 33.5ZM11.2779 33.5C11.9851 33.5 12.6634 33.219 13.1635 32.719C13.6636 32.2189 13.9445 31.5406 13.9445 30.8333C13.9445 30.1261 13.6636 29.4478 13.1635 28.9477C12.6634 28.4476 11.9851 28.1667 11.2779 28.1667C10.5706 28.1667 9.89233 28.4476 9.39223 28.9477C8.89212 29.4478 8.61117 30.1261 8.61117 30.8333C8.61117 31.5406 8.89212 32.2189 9.39223 32.719C9.89233 33.219 10.5706 33.5 11.2779 33.5Z" stroke="#2BA149" stroke-width="2.5" stroke-linecap="round" stroke-linejoin="round"/>
</svg>
