<svg width="25" height="24" viewBox="0 0 25 24" fill="none" xmlns="http://www.w3.org/2000/svg">
<path d="M23.3752 22.8752L18.1275 17.6275M18.1275 17.6275C19.0251 16.7298 19.7372 15.6641 20.223 14.4913C20.7088 13.3184 20.9588 12.0614 20.9588 10.7919C20.9588 9.52244 20.7088 8.26539 20.223 7.09255C19.7372 5.9197 19.0251 4.85403 18.1275 3.95637C17.2298 3.05872 16.1641 2.34666 14.9913 1.86085C13.8184 1.37504 12.5614 1.125 11.2919 1.125C10.0224 1.125 8.76539 1.37504 7.59255 1.86085C6.4197 2.34666 5.35403 3.05872 4.45637 3.95637C2.64348 5.76927 1.625 8.22809 1.625 10.7919C1.625 13.3557 2.64348 15.8146 4.45637 17.6275C6.26927 19.4404 8.72809 20.4588 11.2919 20.4588C13.8557 20.4588 16.3146 19.4404 18.1275 17.6275Z" stroke="black" stroke-width="2" stroke-linecap="round" stroke-linejoin="round"/>
</svg>
